<?xml version="1.0" encoding="UTF-8" standalone="no"?>
<!DOCTYPE svg PUBLIC "-//W3C//DTD SVG 1.1//EN" "http://www.w3.org/Graphics/SVG/1.1/DTD/svg11.dtd">
<svg width="100%" height="100%" viewBox="0 0 314 418" version="1.1" xmlns="http://www.w3.org/2000/svg" xmlns:xlink="http://www.w3.org/1999/xlink" xml:space="preserve" xmlns:serif="http://www.serif.com/" style="fill-rule:evenodd;clip-rule:evenodd;stroke-linejoin:round;stroke-miterlimit:2;">
    <g transform="matrix(1,0,0,1,-11,-56)">
        <g transform="matrix(3.57269,0,0,3.57269,-1288.19,31.8436)">
            <g transform="matrix(0.279901,-1.24301e-16,0,0.279901,295.614,1.72218)">
                <path d="M350.971,26.845L251.433,84.313L251.433,198.597L351.113,256.147L351.113,368.74L449.421,425.498L546.929,369.202L546.929,258.075L449.421,201.778L449.421,85.182L350.971,26.845Z" style="fill:white;"/>
            </g>
            <g transform="matrix(19.8603,11.4663,-1.10247e-15,22.9327,373.774,53.7983)">
                <path d="M0.307,0.008C0.255,0.008 0.209,-0.002 0.17,-0.023C0.131,-0.043 0.1,-0.071 0.079,-0.108C0.058,-0.145 0.047,-0.187 0.047,-0.235L0.047,-0.466C0.047,-0.514 0.058,-0.556 0.079,-0.593C0.1,-0.63 0.131,-0.658 0.17,-0.678C0.209,-0.698 0.255,-0.708 0.307,-0.708C0.358,-0.708 0.404,-0.699 0.443,-0.68C0.482,-0.661 0.512,-0.633 0.534,-0.599C0.555,-0.564 0.566,-0.523 0.566,-0.477C0.566,-0.471 0.562,-0.467 0.554,-0.466L0.437,-0.459L0.435,-0.459C0.428,-0.459 0.425,-0.463 0.425,-0.47C0.425,-0.505 0.414,-0.534 0.393,-0.555C0.371,-0.576 0.342,-0.587 0.307,-0.587C0.271,-0.587 0.242,-0.576 0.221,-0.555C0.199,-0.534 0.188,-0.505 0.188,-0.47L0.188,-0.229C0.188,-0.194 0.199,-0.166 0.221,-0.145C0.242,-0.124 0.271,-0.113 0.307,-0.113C0.342,-0.113 0.371,-0.124 0.393,-0.145C0.414,-0.166 0.425,-0.194 0.425,-0.229C0.425,-0.236 0.429,-0.24 0.437,-0.24L0.554,-0.235C0.557,-0.235 0.56,-0.234 0.563,-0.232C0.565,-0.23 0.566,-0.228 0.566,-0.225C0.566,-0.179 0.555,-0.138 0.534,-0.103C0.512,-0.068 0.482,-0.04 0.443,-0.021C0.404,-0.002 0.358,0.008 0.307,0.008Z" style="fill-rule:nonzero;"/>
            </g>
            <g transform="matrix(19.8603,11.4663,-1.10247e-15,22.9327,398.86,100.282)">
                <path d="M0.216,-0C0.209,-0 0.204,-0.003 0.202,-0.01L0.025,-0.687L0.024,-0.691C0.024,-0.697 0.028,-0.7 0.035,-0.7L0.159,-0.7C0.166,-0.7 0.17,-0.697 0.172,-0.69L0.267,-0.283C0.268,-0.28 0.269,-0.279 0.27,-0.279C0.271,-0.279 0.272,-0.28 0.273,-0.283L0.365,-0.689C0.367,-0.696 0.371,-0.7 0.378,-0.7L0.499,-0.7C0.506,-0.7 0.511,-0.697 0.513,-0.69L0.613,-0.283C0.614,-0.281 0.615,-0.28 0.616,-0.28C0.617,-0.279 0.618,-0.28 0.619,-0.283L0.711,-0.689C0.713,-0.696 0.717,-0.7 0.724,-0.7L0.842,-0.7C0.851,-0.7 0.855,-0.696 0.853,-0.687L0.689,-0.01C0.687,-0.003 0.682,-0 0.675,-0L0.556,-0C0.549,-0 0.545,-0.003 0.543,-0.01L0.441,-0.443C0.44,-0.446 0.439,-0.447 0.438,-0.447C0.437,-0.447 0.436,-0.446 0.435,-0.443L0.34,-0.011C0.339,-0.004 0.334,-0 0.327,-0L0.216,-0Z" style="fill-rule:nonzero;"/>
            </g>
            <g transform="matrix(1,0,0,1,-6.92795,-10.3919)">
                <path d="M371.807,33.727L399.52,17.727C400.216,17.325 401.075,17.325 401.772,17.727L429.485,33.727C429.514,33.744 429.543,33.762 429.571,33.78L429.575,33.783C429.588,33.791 429.601,33.799 429.613,33.807L429.618,33.81L429.647,33.831C429.773,33.918 429.891,34.02 429.999,34.134L430.019,34.156L430.025,34.163C430.16,34.311 430.274,34.476 430.364,34.653L430.365,34.654L430.365,34.655C430.416,34.754 430.459,34.857 430.494,34.963L430.497,34.968L430.498,34.972C430.536,35.089 430.565,35.209 430.584,35.332L430.585,35.335L430.585,35.339C430.602,35.45 430.611,35.564 430.611,35.678L430.611,65.92C430.611,66.203 430.762,66.465 431.008,66.607C434.315,68.516 457.198,81.727 457.198,81.727L457.23,81.747L457.262,81.766L457.294,81.786L457.325,81.807L457.356,81.828L457.386,81.849L457.417,81.871L457.446,81.894L457.475,81.917L457.504,81.94L457.532,81.964L457.56,81.988L457.588,82.013L457.615,82.038L457.642,82.063L457.668,82.089L457.693,82.115L457.719,82.142L457.743,82.169L457.768,82.196L457.792,82.224L457.815,82.252L457.838,82.281L457.86,82.309L457.882,82.339L457.904,82.368L457.925,82.398L457.945,82.428L457.965,82.459L457.985,82.489L458.004,82.521L458.022,82.552L458.04,82.584L458.058,82.616L458.075,82.648L458.091,82.681L458.107,82.713L458.122,82.746L458.137,82.78L458.151,82.813L458.165,82.847L458.178,82.881L458.191,82.916L458.203,82.95L458.215,82.985L458.226,83.02L458.236,83.055L458.246,83.09L458.255,83.126L458.264,83.162L458.272,83.198L458.28,83.234L458.287,83.27L458.293,83.307L458.299,83.343L458.304,83.38L458.309,83.417L458.313,83.454L458.316,83.491L458.319,83.528L458.321,83.565L458.323,83.603L458.324,83.641L458.324,83.678L458.324,115.678C458.324,116.483 457.895,117.227 457.198,117.629L429.485,133.629L429.452,133.647L429.419,133.665L429.386,133.683L429.352,133.7L429.319,133.716L429.285,133.731L429.251,133.746L429.217,133.761L429.182,133.775L429.148,133.788L429.113,133.801L429.078,133.813L429.043,133.824L429.008,133.835L428.972,133.846L428.937,133.855L428.901,133.864L428.866,133.873L428.83,133.881L428.794,133.888L428.758,133.895L428.722,133.901L428.686,133.907L428.65,133.912L428.613,133.916L428.577,133.92L428.541,133.923L428.504,133.926L428.468,133.928L428.432,133.929L428.395,133.93L428.359,133.931L428.322,133.93L428.286,133.929L428.249,133.928L428.213,133.926L428.176,133.923L428.14,133.92L428.104,133.916L428.068,133.912L428.031,133.907L427.995,133.901L427.959,133.895L427.923,133.888L427.887,133.881L427.85,133.873L427.816,133.864C427.804,133.861 427.792,133.858 427.78,133.855L427.745,133.846L427.71,133.835L427.674,133.824L427.639,133.813L427.604,133.801L427.57,133.788L427.535,133.775L427.501,133.761L427.466,133.746L427.432,133.731L427.399,133.716L427.365,133.7L427.331,133.683L427.298,133.665L427.265,133.647L427.232,133.629C427.232,133.629 399.52,117.629 399.52,117.629C398.823,117.227 398.393,116.483 398.393,115.678L398.393,85.56C398.393,85.2 398.201,84.868 397.89,84.688C394.226,82.573 371.807,69.629 371.807,69.629C371.11,69.227 370.681,68.483 370.681,67.678L370.681,35.678L370.681,35.641L370.682,35.603L370.683,35.565L370.686,35.528L370.688,35.491L370.692,35.454L370.696,35.417L370.7,35.38L370.706,35.343L370.711,35.307L370.718,35.27L370.725,35.234L370.732,35.198L370.74,35.162L370.749,35.126L370.758,35.09L370.768,35.055L370.779,35.02L370.79,34.985L370.801,34.95L370.813,34.916L370.826,34.881L370.839,34.847L370.853,34.813L370.867,34.78L370.882,34.746L370.898,34.713L370.913,34.681L370.93,34.648L370.947,34.616L370.964,34.584L370.982,34.552L371.001,34.521L371.02,34.489L371.039,34.459L371.059,34.428L371.08,34.398L371.101,34.368L371.122,34.339L371.144,34.309L371.167,34.281L371.189,34.252L371.213,34.224L371.237,34.196L371.261,34.169L371.286,34.142L371.311,34.115L371.337,34.089L371.363,34.063L371.39,34.038L371.417,34.013L371.444,33.988L371.472,33.964L371.5,33.94L371.529,33.917L371.558,33.894L371.588,33.871L371.618,33.849L371.648,33.828L371.679,33.807L371.711,33.786L371.742,33.766L371.774,33.747L371.807,33.727ZM426.106,101.55C426.106,101.197 425.917,100.87 425.611,100.693C422.537,98.918 406.096,89.426 403.302,87.813C403.219,87.765 403.116,87.765 403.033,87.813C402.95,87.861 402.898,87.95 402.898,88.046L402.898,113.906C402.898,114.198 403.054,114.468 403.307,114.614C406.128,116.243 422.68,125.799 425.65,127.513C425.744,127.568 425.86,127.568 425.954,127.513C426.048,127.459 426.106,127.359 426.106,127.25L426.106,101.55ZM453.819,88.129C453.819,88.015 453.759,87.911 453.66,87.854C453.562,87.797 453.442,87.797 453.344,87.854C450.352,89.581 434.155,98.933 431.106,100.693C430.8,100.87 430.611,101.197 430.611,101.55L430.611,127.323C430.611,127.417 430.661,127.503 430.742,127.55C430.823,127.597 430.923,127.597 431.004,127.55C433.799,125.937 450.649,116.208 453.43,114.602C453.671,114.463 453.819,114.207 453.819,113.929L453.819,88.129ZM451.092,83.952C451.19,83.896 451.25,83.791 451.25,83.678C451.25,83.565 451.19,83.461 451.092,83.404C448.102,81.678 431.892,72.319 428.851,70.563C428.546,70.387 428.171,70.387 427.867,70.563C424.8,72.334 408.349,81.832 405.554,83.445C405.471,83.493 405.42,83.582 405.42,83.678C405.42,83.774 405.471,83.863 405.554,83.911C408.348,85.524 424.789,95.017 427.864,96.791C428.17,96.968 428.547,96.968 428.854,96.791C431.903,95.031 448.103,85.678 451.092,83.952ZM375.67,39.859C375.57,39.802 375.447,39.802 375.347,39.859C375.247,39.917 375.185,40.024 375.185,40.139C375.185,43.655 375.185,62.646 375.185,65.902C375.185,66.197 375.342,66.468 375.597,66.615C378.444,68.259 395.17,77.916 397.99,79.544C398.073,79.592 398.176,79.592 398.259,79.544C398.342,79.496 398.393,79.407 398.393,79.311L398.393,53.161C398.393,53.048 398.333,52.944 398.235,52.887C396.382,51.818 378.826,41.682 375.67,39.859ZM425.589,39.878L403.057,52.887C402.959,52.944 402.898,53.048 402.898,53.161C402.898,55.32 402.898,75.936 402.898,79.311C402.898,79.407 402.95,79.496 403.033,79.544C403.116,79.592 403.219,79.592 403.302,79.544C406.092,77.933 422.492,68.464 425.598,66.671C425.913,66.489 426.106,66.154 426.106,65.791L426.106,40.177C426.106,40.054 426.04,39.94 425.934,39.878C425.827,39.817 425.696,39.817 425.589,39.878ZM377.957,35.379C377.85,35.441 377.784,35.555 377.784,35.678C377.784,35.802 377.85,35.916 377.957,35.978C381.202,37.852 398.641,47.92 400.488,48.986C400.585,49.042 400.706,49.042 400.804,48.986L423.854,35.678C423.854,35.678 402.81,23.528 400.8,22.368C400.704,22.313 400.587,22.313 400.492,22.368C398.67,23.42 381.205,33.503 377.957,35.379Z"/>
            </g>
        </g>
    </g>
</svg>
